<?xml version="1.0" encoding="UTF-8" standalone="no"?>
<!-- Generator: Adobe Illustrator 19.0.0, SVG Export Plug-In . SVG Version: 6.00 Build 0)  -->

<svg
   xmlns:dc="http://purl.org/dc/elements/1.1/"
   xmlns:cc="http://creativecommons.org/ns#"
   xmlns:rdf="http://www.w3.org/1999/02/22-rdf-syntax-ns#"
   xmlns:svg="http://www.w3.org/2000/svg"
   xmlns="http://www.w3.org/2000/svg"
   xmlns:sodipodi="http://sodipodi.sourceforge.net/DTD/sodipodi-0.dtd"
   xmlns:inkscape="http://www.inkscape.org/namespaces/inkscape"
   version="1.1"
   id="Capa_1"
   x="0px"
   y="0px"
   viewBox="0 0 512 512"
   style="enable-background:new 0 0 512 512;"
   xml:space="preserve"
   sodipodi:docname="logo-full.svg"
   inkscape:version="0.92.4 (5da689c313, 2019-01-14)"><metadata
   id="metadata942"><rdf:RDF><cc:Work
       rdf:about=""><dc:format>image/svg+xml</dc:format><dc:type
         rdf:resource="http://purl.org/dc/dcmitype/StillImage" /></cc:Work></rdf:RDF></metadata><defs
   id="defs940" /><sodipodi:namedview
   pagecolor="#ffffff"
   bordercolor="#666666"
   borderopacity="1"
   objecttolerance="10"
   gridtolerance="10"
   guidetolerance="10"
   inkscape:pageopacity="0"
   inkscape:pageshadow="2"
   inkscape:window-width="1284"
   inkscape:window-height="757"
   id="namedview938"
   showgrid="false"
   inkscape:zoom="0.7623495"
   inkscape:cx="256"
   inkscape:cy="258.59097"
   inkscape:window-x="0"
   inkscape:window-y="0"
   inkscape:window-maximized="0"
   inkscape:current-layer="Capa_1" />
<g
   id="g905"
   transform="matrix(0.70819643,0,0,0.70819643,69.600265,44.569297)">
	<g
   id="g903">
		<g
   id="g901">
			<path
   d="m 146,263 c 0,60.654 49.346,110 110,110 60.654,0 110,-49.346 110,-110 0,-60.654 -49.346,-110 -110,-110 -60.654,0 -110,49.346 -110,110 z m 180,0 c 0,38.598 -31.402,70 -70,70 -12.04,0 -23.378,-3.057 -33.283,-8.433 l 94.85,-94.851 C 322.943,239.621 326,250.96 326,263 Z M 194.433,296.284 C 189.057,286.379 186,275.04 186,263 c 0,-38.598 31.402,-70 70,-70 12.04,0 23.378,3.057 33.283,8.433 z"
   id="path897"
   inkscape:connector-curvature="0" />
			<path
   d="m 468.04,91.688 -205,-90 c -5.147,-2.26 -11.007,-2.25 -16.146,0.029 l -203,90 C 36.663,94.923 32,102.09 32,110 v 158 c 0,59.712 23.597,120.752 64.741,167.468 20.695,23.497 44.553,42.091 70.912,55.265 C 195.887,504.845 225.611,512 256,512 c 42.552,0 83.967,-13.772 119.769,-39.83 8.931,-6.5 10.902,-19.008 4.402,-27.939 -6.5,-8.931 -19.009,-10.9 -27.94,-4.402 C 323.313,460.876 290.037,472 256,472 159.701,472 72,374.767 72,268 V 123.011 L 255.04,41.86 440,123.063 V 268 c 0,36.829 -10.58,74.1 -30.597,107.784 -5.643,9.495 -2.52,21.767 6.976,27.41 9.497,5.641 21.768,2.519 27.411,-6.977 C 467.479,356.354 480,312.018 480,268 V 110 c 0,-7.936 -4.693,-15.122 -11.96,-18.312 z"
   id="path899"
   inkscape:connector-curvature="0" />
		</g>
	</g>
</g>
<g
   id="g907">
</g>
<g
   id="g909">
</g>
<g
   id="g911">
</g>
<g
   id="g913">
</g>
<g
   id="g915">
</g>
<g
   id="g917">
</g>
<g
   id="g919">
</g>
<g
   id="g921">
</g>
<g
   id="g923">
</g>
<g
   id="g925">
</g>
<g
   id="g927">
</g>
<g
   id="g929">
</g>
<g
   id="g931">
</g>
<g
   id="g933">
</g>
<g
   id="g935">
</g>
<text
   xml:space="preserve"
   style="font-style:normal;font-variant:normal;font-weight:normal;font-stretch:normal;font-size:70.45389557px;line-height:125%;font-family:Courier;-inkscape-font-specification:Courier;letter-spacing:0px;word-spacing:0px;fill:#000000;fill-opacity:1;stroke:none;stroke-width:1.76134741px;stroke-linecap:butt;stroke-linejoin:miter;stroke-opacity:1"
   x="2.4015779"
   y="475.42419"
   id="text5872"><tspan
     sodipodi:role="line"
     id="tspan5870"
     x="2.4015779"
     y="475.42419"
     style="stroke-width:1.76134741px">do!not/track</tspan></text>
</svg>